<svg xmlns="http://www.w3.org/2000/svg" viewBox="0 0 610 158"><defs><style>.cls-2{fill:#008cff}</style></defs><g id="Blue"><path d="M7.5 20A14.7 14.7 0 0 1 22.4 5.4h117.9a14.7 14.7 0 0 1 14.7 14.8v117.8a14.7 14.7 0 0 1-14.7 14.8h-118a14.7 14.7 0 0 1-14.6-14.8V20.1zm102.2 11.1s19.4 0 19.4 19.4H33.3S33.3 31 52.8 31zm-57 95.8s-19.4 0-19.4-19.4h95.9s0 19.4-19.4 19.4zm0-38.2s-19.4 0-19.4-19.4h76.5c19.3 0 19.3 19.4 19.3 19.4H52.8zm0 0" fill-rule="evenodd" fill="#008cff"/><path class="cls-2" d="M291.9 124.2l.5.7-.9.1a57.8 57.8 0 0 1-7.3.6c-1.3 0-2.6 0-3.9-.2l-3.8-.4h-.2l-.1-.2-24.3-34V126h-15.2V24h15.2v62.2l20.6-31.3.1-.2h.3a47 47 0 0 1 11-.4l3.8.4.9.1-.5.7-21.6 32.8zM222 90.4a18.9 18.9 0 0 0-5.1-3.8 45.4 45.4 0 0 0-6.3-2.6l-6-2-4.5-1.6a16.8 16.8 0 0 1-3.6-2 8.6 8.6 0 0 1-2.4-2.5 7.2 7.2 0 0 1-.9-3.7 5.8 5.8 0 0 1 3.6-5.7 20.6 20.6 0 0 1 8.6-1.7 36.2 36.2 0 0 1 8.8 1 67.2 67.2 0 0 1 7 2l.4.2.2-.4a30.7 30.7 0 0 0 1.8-5.1 33.1 33.1 0 0 0 1-5.5v-.4l-.3-.1a64.1 64.1 0 0 0-8.8-2.5 53.3 53.3 0 0 0-10.4-1q-12.9 0-19.6 5.5t-6.7 15c0 4.7 1.3 8.5 4 11.3s7 5.3 12.8 7.4l4.7 1.8q2.6.8 4.8 1.7a17.6 17.6 0 0 1 3.8 2 9 9 0 0 1 2.6 2.8 8.4 8.4 0 0 1 .9 4.2 7.3 7.3 0 0 1-1.2 4.1 10.8 10.8 0 0 1-3.2 3.2 15.2 15.2 0 0 1-4.8 2 25 25 0 0 1-5.8.6 45.6 45.6 0 0 1-16.6-3.2l-.5-.2-.2.5-2 5.5a28.3 28.3 0 0 0-1.1 5.6v.4l.3.1a57.3 57.3 0 0 0 9.2 2.4 65 65 0 0 0 11.4 1 39.8 39.8 0 0 0 11.8-1.7 28.1 28.1 0 0 0 9.1-4.6 20.7 20.7 0 0 0 6-7.2 22.8 22.8 0 0 0 .7-17.2 17.8 17.8 0 0 0-3.5-5.6zm128.2-17.8a42 42 0 0 1 2 13 62.3 62.3 0 0 1-.5 7.5v.5h-47.1c.2 7.4 2 12.3 5.7 15.7s9 5.2 16.2 5.2a49.2 49.2 0 0 0 18-3.4l.5-.2.2.5a20.8 20.8 0 0 1 1.8 5 33 33 0 0 1 .8 5.8v.4l-.3.1a45.1 45.1 0 0 1-10 3 68 68 0 0 1-11.8 1 45.2 45.2 0 0 1-16.4-2.8 29 29 0 0 1-18-19 49.3 49.3 0 0 1-2-14.6 51.5 51.5 0 0 1 2-14.6 33 33 0 0 1 6.2-11.8 29.4 29.4 0 0 1 10.3-8 34 34 0 0 1 14.8-3 30.9 30.9 0 0 1 12.8 2.5 26 26 0 0 1 9.2 6.8 29.4 29.4 0 0 1 5.6 10.4zM339 83.1a26 26 0 0 0-1-7.4 19.1 19.1 0 0 0-3-6.1 15 15 0 0 0-5.2-4.3 16.1 16.1 0 0 0-7.4-1.6q-8.5 0-13 5.2T303.9 83v.5H339zM420 25h.4v98l-.3.1a95.9 95.9 0 0 1-11.6 2.6 90.9 90.9 0 0 1-14.3 1 51.8 51.8 0 0 1-14-1.9 28.8 28.8 0 0 1-19.4-17.1q-2.8-6.7-2.8-16.5a45 45 0 0 1 2.5-15.5 34.6 34.6 0 0 1 7.2-12A32.1 32.1 0 0 1 379 56a36.9 36.9 0 0 1 14.5-2.8 48.4 48.4 0 0 1 7.1.6 37.6 37.6 0 0 1 5.7 1.2V25h.4a30.4 30.4 0 0 1 3.5-.5 42 42 0 0 1 6.6 0 30 30 0 0 1 3.3.4zm-13.3 42a28.8 28.8 0 0 0-5.8-1.6 39.5 39.5 0 0 0-6.7-.6 21.2 21.2 0 0 0-9.6 2 18.7 18.7 0 0 0-6.7 5.6 24 24 0 0 0-3.9 8.3 40.1 40.1 0 0 0-1.3 10.5q.1 12.8 6 18.3T395 115a58.8 58.8 0 0 0 6.5-.3 31.7 31.7 0 0 0 5.3-1zm77.9-12.7l-3.4-.1-3.3.1a33.1 33.1 0 0 0-3.4.4l-.4.1V113a41 41 0 0 1-11.2 1.4 30.7 30.7 0 0 1-8-1 12.4 12.4 0 0 1-5.8-3.2 14.6 14.6 0 0 1-3.5-6.5 39.2 39.2 0 0 1-1.2-10.6V54.7h-.4a32.9 32.9 0 0 0-3.4-.5l-3.5-.1-3.2.1a32.9 32.9 0 0 0-3.5.4l-.4.1v39q0 10.4 2.6 16.9a23.9 23.9 0 0 0 7.2 10 24.4 24.4 0 0 0 10.6 4.8 65.8 65.8 0 0 0 12.6 1.2 74.5 74.5 0 0 0 13.7-1.2q6.6-1.3 11.3-2.6l.4-.1v-68h-.4a32.8 32.8 0 0 0-3.4-.5zm42 59.2l-.5.2a16 16 0 0 1-2.5.4h-2.8a14.9 14.9 0 0 1-3.2-.2 4.8 4.8 0 0 1-2.4-1.4 7.6 7.6 0 0 1-1.7-3 20.3 20.3 0 0 1-.7-5.9V25h-.4a30.2 30.2 0 0 0-3.4-.5l-3.3-.1-3.4.1a30.2 30.2 0 0 0-3.3.4l-.4.1v81.5a24.9 24.9 0 0 0 1.5 9.3 15.2 15.2 0 0 0 4.2 6 16.2 16.2 0 0 0 6.1 3.2 27.6 27.6 0 0 0 7.4 1c1.6 0 3.3 0 5-.2a18.2 18.2 0 0 0 4.8-.9l.3-.1v-.4a41.7 41.7 0 0 0-1.2-10.4zM592.1 90a50.8 50.8 0 0 1-2 14.4A32.2 32.2 0 0 1 584 116a28.8 28.8 0 0 1-10.3 7.8 38.2 38.2 0 0 1-28.8 0 28.8 28.8 0 0 1-10.3-7.8 32.2 32.2 0 0 1-6.1-11.7 53.6 53.6 0 0 1 0-29 32.2 32.2 0 0 1 6-11.6A29.3 29.3 0 0 1 545 56a37.4 37.4 0 0 1 28.8 0 29.3 29.3 0 0 1 10.3 7.8 32.2 32.2 0 0 1 6.1 11.7 50.8 50.8 0 0 1 2 14.5zm-15 0q0-12-4.4-18.5c-3-4.3-7.3-6.5-13.4-6.5S549 67.2 546 71.5s-4.3 10.5-4.3 18.4 1.4 14.1 4.3 18.6 7.2 6.5 13.3 6.5 10.5-2.2 13.3-6.6 4.4-10.5 4.4-18.5zM604.7 60a7 7 0 1 1-6.9-7 7 7 0 0 1 7 7zm-1.2 0a5.7 5.7 0 1 0-5.7 5.8 5.7 5.7 0 0 0 5.7-5.8zm-4.6 1l1.7 2.4h-1.7l-1.6-2.2h-.3v2.2h-1.5v-6.7h2.7a2.1 2.1 0 0 1 2.3 2.2A2 2 0 0 1 599 61zm-1.9-1h1a1 1 0 0 0 1-1 1 1 0 0 0-1-1h-1z"/></g></svg>
